<svg id="Email" xmlns="http://www.w3.org/2000/svg" xmlns:xlink="http://www.w3.org/1999/xlink" width="29" height="23" viewBox="0 0 29 23">
  <defs>
    <pattern id="pattern" preserveAspectRatio="none" width="100%" height="100%" viewBox="0 0 0 0">
      <image/>
    </pattern>
  </defs>
  <g id="Email-2" data-name="Email" transform="translate(-59.34 -93.958)">
    <g id="Group_1" data-name="Group 1">
      <path id="Path_1" data-name="Path 1" d="M62.124,101.048q.55.392,3.317,2.327t4.24,2.981c.108.076.338.243.688.5s.642.463.874.621.512.335.842.532a4.859,4.859,0,0,0,.93.441,2.557,2.557,0,0,0,.81.147h.032a2.557,2.557,0,0,0,.81-.147,4.934,4.934,0,0,0,.93-.441c.329-.2.609-.373.842-.532s.523-.364.873-.621.581-.422.688-.5q1.488-1.046,7.574-5.309a7.718,7.718,0,0,0,1.974-2.009,4.344,4.344,0,0,0,.794-2.466,2.518,2.518,0,0,0-.769-1.846,2.488,2.488,0,0,0-1.82-.767H61.93a2.3,2.3,0,0,0-1.919.85,3.319,3.319,0,0,0-.671,2.124,3.836,3.836,0,0,0,.89,2.23,8.059,8.059,0,0,0,1.893,1.886Zm0,0" fill="#fff"/>
      <path id="Path_2" data-name="Path 2" d="M86.721,102.8q-5.307,3.626-8.059,5.635-.922.687-1.5,1.07a9.081,9.081,0,0,1-1.528.784,4.619,4.619,0,0,1-1.781.4h-.032a4.616,4.616,0,0,1-1.781-.4,9.134,9.134,0,0,1-1.529-.784q-.573-.383-1.5-1.07-2.185-1.617-8.043-5.635a8.607,8.607,0,0,1-1.634-1.422v12.97a2.529,2.529,0,0,0,.76,1.846,2.482,2.482,0,0,0,1.829.767H85.751a2.482,2.482,0,0,0,1.829-.767,2.528,2.528,0,0,0,.76-1.846v-12.97a8.987,8.987,0,0,1-1.619,1.422Zm0,0" fill="#fff"/>
    </g>
  </g>
  <rect id="Place_Your_Image_Here" data-name="Place Your Image Here" fill="url(#pattern)"/>
</svg>
