<svg xmlns="http://www.w3.org/2000/svg" width="31.002" height="34.997" viewBox="0 0 31.002 34.997">
  <g id="Location_Icon" data-name="Location Icon" transform="translate(-1035.943 -633.516)">
    <path id="Path_3" data-name="Path 3" d="M1062.405,637.762a16.268,16.268,0,0,0-21.922,0h0a13.84,13.84,0,0,0,0,20.5l10.959,10.25,10.963-10.25A13.84,13.84,0,0,0,1062.405,637.762Zm-4.6,16.2a9.44,9.44,0,0,1-12.73,0,8.037,8.037,0,0,1,0-11.9,9.448,9.448,0,0,1,12.73,0A8.037,8.037,0,0,1,1057.809,653.964Z" fill="#fff"/>
  </g>
</svg>
